<?xml version="1.0" encoding="UTF-8"?>
<svg id="Layer_1" data-name="Layer 1" xmlns="http://www.w3.org/2000/svg" width="150" height="75" viewBox="0 0 150 75">
  <defs>
    <style>
      .cls-1 {
        fill: #fff;
      }

      .cls-2 {
        fill: #362063;
      }
    </style>
  </defs>
  <path class="cls-2" d="M137.66,9.49h-27.5c-2.28,0-4.38,.77-6.08,2.04-1.69-1.28-3.78-2.04-6.05-2.04h-24.32c-3.43,0-6.46,1.73-8.28,4.36-1.91-2.63-5.01-4.36-8.51-4.36-5.8,0-10.52,4.72-10.52,10.52v2.31l-4.28-7.51c-1.87-3.28-5.37-5.31-9.14-5.31h-2.83c-5.8,0-10.52,4.72-10.52,10.52v26.46c-1.85-1.46-4.19-2.34-6.75-2.34-5.9,0-10.69,4.8-10.69,10.69s4.8,10.69,10.69,10.69h.12c3.54,0,6.67-1.74,8.62-4.39,1.91,2.65,5.02,4.39,8.53,4.39,5.8,0,10.52-4.72,10.52-10.52v-3l4.73,8.24c1.87,3.26,5.37,5.28,9.12,5.28h2.4c3.5,0,6.59-1.72,8.51-4.36,1.82,2.63,4.85,4.36,8.28,4.36h25.38c5.55,0,10.06-4.51,10.06-10.06v-.27c0-4.91-3.53-9.01-8.19-9.89,3.12-1.71,5.24-5.03,5.24-8.83,0-3.13-1.43-5.93-3.68-7.77,.55-.28,1.06-.62,1.55-.99,1.7,1.28,3.8,2.05,6.08,2.05h2.92v25.62c0,5.59,4.55,10.13,10.13,10.13h1.44c5.59,0,10.13-4.55,10.13-10.13V29.76h2.86c5.59,0,10.13-4.55,10.13-10.13s-4.55-10.13-10.13-10.13Z"/>
  <path class="cls-1" d="M12.9,50.41h.12c2.43,0,4.41,1.97,4.41,4.41h0c0,2.43-1.97,4.41-4.41,4.41h-.12c-2.43,0-4.41-1.97-4.41-4.41h0c0-2.43,1.97-4.41,4.41-4.41Z"/>
  <path class="cls-1" d="M30.17,15.78h2.83c1.52,0,2.92,.82,3.68,2.14l8.12,14.27c2.15,3.77,7.91,2.25,7.91-2.09v-10.09c0-2.34,1.89-4.23,4.23-4.23h0c2.34,0,4.23,1.89,4.23,4.23V54.99c0,2.34-1.89,4.23-4.23,4.23h-2.4c-1.52,0-2.91-.81-3.67-2.12l-8.57-14.94c-2.16-3.76-7.9-2.23-7.9,2.11v10.73c0,2.34-1.89,4.23-4.23,4.23h0c-2.34,0-4.23-1.89-4.23-4.23V20.01c0-2.34,1.89-4.23,4.23-4.23Z"/>
  <path class="cls-1" d="M98.04,23.47h-15.45c-2.08,0-3.77,1.69-3.77,3.77v1.68c0,2.08,1.69,3.77,3.77,3.77h13.56c2.08,0,3.77,1.69,3.77,3.77h0c0,2.08-1.69,3.77-3.77,3.77h-13.56c-2.08,0-3.77,1.69-3.77,3.77v3.63c0,2.08,1.69,3.77,3.77,3.77h16.51c2.08,0,3.77,1.69,3.77,3.77v.27c0,2.08-1.69,3.77-3.77,3.77h-25.38c-2.08,0-3.77-1.69-3.77-3.77V19.55c0-2.08,1.69-3.77,3.77-3.77h24.32c2.08,0,3.77,1.69,3.77,3.77v.15c0,2.08-1.69,3.77-3.77,3.77Z"/>
  <path class="cls-1" d="M141.51,19.62h0c0,2.12-1.72,3.85-3.85,3.85h-5.31c-2.12,0-3.85,1.72-3.85,3.85v28.06c0,2.12-1.72,3.85-3.85,3.85h-1.44c-2.12,0-3.85-1.72-3.85-3.85V27.32c0-2.12-1.72-3.85-3.85-3.85h-5.36c-2.12,0-3.85-1.72-3.85-3.85h0c0-2.12,1.72-3.85,3.85-3.85h27.5c2.12,0,3.85,1.72,3.85,3.85Z"/>
</svg>